<?xml version="1.0" encoding="UTF-8"?><svg id="Layer_2" xmlns="http://www.w3.org/2000/svg" viewBox="0 0 500 141.77"><defs><style>.cls-1{fill:#14364a;}</style></defs><g id="artwork"><path class="cls-1" d="M163.97,42.79c0-11.71,7.83-20.15,18.72-20.15,8.24,0,17.7,4.97,17.7,19.47v2.52h-29.41c.48,7.49,5.58,11.85,12.12,11.85,5.38,0,9.33-3.27,11.23-7.97l6.4,2.52c-2.66,7.01-9.26,11.64-17.64,11.64-10.96,0-19.13-7.97-19.13-19.88Zm29.35-4.09c-.41-7.29-5.65-10.08-10.69-10.08-6.13,0-10.28,4.36-11.3,10.08h21.99Zm12.55,22.81V23.73h6.81v6.47h.14c2.86-5.24,7.49-7.56,12.6-7.56,6.81,0,13.48,4.22,13.48,15.12v23.76h-6.95v-20.7c0-7.35-3.13-11.64-8.78-11.64-6.26,0-10.35,5.11-10.35,12.05v20.29h-6.94Zm37.83-18.86c0-12.26,7.76-20.02,17.36-20.02,5.79,0,10.35,2.86,12.87,7.49h.14V7.45h6.94V49.74c0,6.26,.48,8.85,1.23,11.78h-6.88c-.61-2.45-.88-4.36-.88-6.26h-.14c-2.86,5.04-7.97,7.42-13.28,7.42-10.28,0-17.36-8.38-17.36-20.02Zm30.5-.07c0-7.97-5.17-13.48-11.78-13.48s-11.51,5.72-11.51,13.55,4.83,13.48,11.51,13.48,11.78-5.58,11.78-13.55Zm11.77,.2c0-11.71,7.83-20.15,18.72-20.15,8.24,0,17.7,4.97,17.7,19.47v2.52h-29.41c.48,7.49,5.58,11.85,12.12,11.85,5.38,0,9.33-3.27,11.23-7.97l6.4,2.52c-2.66,7.01-9.26,11.64-17.64,11.64-10.96,0-19.13-7.97-19.13-19.88Zm29.35-4.09c-.41-7.29-5.65-10.08-10.69-10.08-6.13,0-10.28,4.36-11.3,10.08h21.99Zm10.28,13.55c0-7.08,6.06-10.01,13.01-11.44,7.69-1.57,11.64-1.84,11.64-5.79,0-3.54-3.13-6.67-7.97-6.67-4.22,0-7.56,2.52-8.85,7.01l-6.54-2.18c2.25-7.56,8.99-10.55,15.73-10.55,8.03,0,14.64,4.08,14.64,13.01v14.09c0,6.2,.48,8.85,1.23,11.78h-6.88c-.68-2.18-.89-4.08-.89-6.47h-.14c-2.18,4.43-6.67,7.63-12.66,7.63-6.4,0-12.32-3.4-12.32-10.42Zm24.65-5.45v-4.15c-2.04,1.23-4.49,1.97-8.24,2.72-3.68,.75-8.85,2.25-8.85,6.6,0,3.34,2.59,5.24,6.54,5.24,6.54,0,10.55-5.92,10.55-10.42Zm22.68,14.71l-14.23-37.79h7.56c3.68,9.81,7.08,19.41,10.76,29.62h.14c3.68-10.21,7.08-19.81,10.76-29.62h7.29l-14.16,37.79h-8.1Zm21.52-18.79c0-11.78,7.9-20.09,19.27-20.09s19.13,8.31,19.13,20.09-7.9,19.95-19.13,19.95-19.27-8.17-19.27-19.95Zm31.12,0c0-7.97-4.83-13.55-11.85-13.55s-11.98,5.58-11.98,13.55,4.83,13.48,11.98,13.48,11.85-5.58,11.85-13.48Zm11.96,4.7V23.73h6.94v21.24c0,7.83,3.81,11.23,8.58,11.23,6.33,0,9.87-5.79,9.87-11.64V23.73h6.94v26.01c0,6.26,.48,8.85,1.23,11.78h-6.94c-.61-2.45-.89-4.29-.82-5.86h-.14c-2.45,4.63-6.54,7.01-12.05,7.01-7.49,0-13.62-4.43-13.62-15.25Zm39.94,14.09V23.73h6.81v6.88h.27c1.91-4.49,6.13-7.97,11.44-7.97,1.29,0,2.66,.2,4.02,.75v7.63c-1.43-.54-3.47-.82-4.63-.82-8.37,0-10.96,8.1-10.96,14.71v16.61h-6.94ZM165.67,123.36l6.26-2.18c1.84,4.63,5.31,7.22,11.1,7.22,6.4,0,11.3-3.68,11.3-14.23v-3.27h-.14c-2.79,5.04-7.63,7.22-12.73,7.22-10.83,0-17.5-8.72-17.5-19.34,0-11.37,7.56-19.41,17.29-19.41,5.86,0,10.55,2.93,13.07,7.63h.14v-6.54h6.81v33.5c0,15.39-8.24,20.36-18.11,20.36-7.29,0-14.37-2.52-17.5-10.96Zm28.8-24.72c0-7.35-5.17-12.8-11.78-12.8s-11.51,5.65-11.51,12.8,4.83,13.01,11.51,13.01,11.78-5.72,11.78-13.01Zm14.25,19.61v-37.79h6.81v6.88h.27c1.91-4.49,6.13-7.97,11.44-7.97,1.29,0,2.66,.2,4.02,.75v7.63c-1.43-.54-3.47-.82-4.63-.82-8.37,0-10.96,8.1-10.96,14.71v16.61h-6.94Zm22.96-18.79c0-11.78,7.9-20.09,19.27-20.09s19.13,8.31,19.13,20.09-7.9,19.95-19.13,19.95-19.27-8.17-19.27-19.95Zm31.12,0c0-7.97-4.83-13.55-11.85-13.55s-11.98,5.58-11.98,13.55,4.83,13.48,11.98,13.48,11.85-5.58,11.85-13.48Zm11.96,4.7v-23.69h6.94v21.24c0,7.83,3.81,11.23,8.58,11.23,6.33,0,9.87-5.79,9.87-11.64v-20.83h6.94v26.01c0,6.26,.48,8.85,1.23,11.78h-6.94c-.61-2.45-.88-4.29-.82-5.86h-.14c-2.45,4.63-6.54,7.01-12.05,7.01-7.49,0-13.62-4.43-13.62-15.25Zm39.94,29.07v-52.77h6.81v6.88h.14c3.27-5.45,8.03-7.97,13.41-7.97,10.15,0,16.95,8.65,16.95,19.88,0,12.32-7.97,20.15-17.36,20.15-5.86,0-10.49-3.06-13.01-7.56v21.38h-6.94Zm30.1-33.84c0-7.83-4.9-13.48-11.51-13.48s-11.78,5.52-11.78,13.55,5.24,13.48,11.78,13.48,11.51-5.79,11.51-13.55ZM69.83,0c-1.27,0-3.41,1.89-3.41,14.54s2.14,14.54,3.41,14.54,3.41-1.89,3.41-14.54-2.14-14.54-3.41-14.54Zm14.3,31.6c.13,.05,.28,.08,.45,.08,1.35,0,3.88-1.99,7.73-12.58,.62-1.7,1.75-5,2.43-8.08,.89-4.05,.67-6.26-.66-6.75-1.34-.49-2.92,1.07-4.84,4.74-1.46,2.79-2.71,6.06-3.33,7.75-4.33,11.89-2.97,14.39-1.77,14.83Zm13.56,7.6c1.17,0,2.88-1.04,5.19-3.14,2.33-2.12,4.62-4.76,5.78-6.15,8.13-9.69,7.71-12.51,6.73-13.33-.98-.82-3.83-.74-11.96,8.95-1.16,1.38-3.36,4.1-5.05,6.76-2.22,3.51-2.78,5.65-1.69,6.57,.27,.23,.6,.34,.99,.34Zm8.34,10.78c.23,.41,.75,.79,1.86,.79,1.9,0,5.52-1.11,12.44-5.1,10.96-6.33,11.52-9.12,10.89-10.22-.64-1.1-3.34-2.01-14.3,4.32-10.96,6.33-11.52,9.12-10.89,10.22Zm4.97,13.64c.15,.82,1.16,1.87,5.37,1.87,2.2,0,5.27-.29,9.54-1.04,12.46-2.2,13.95-4.63,13.73-5.88s-2.45-3.03-14.91-.83c-12.46,2.2-13.95,4.63-13.73,5.88Zm14.91,13.69c-12.46-2.2-14.69-.42-14.91,.83-.22,1.25,1.27,3.69,13.73,5.88,4.28,.75,7.34,1.04,9.54,1.04,4.21,0,5.22-1.05,5.37-1.87,.22-1.25-1.27-3.69-13.73-5.88Zm1.48,23.42c-2.5-1.92-5.49-3.72-7.06-4.63-1.56-.9-4.62-2.6-7.54-3.8-3.84-1.58-6.05-1.75-6.76-.52-.71,1.23,.54,3.06,3.83,5.6,2.5,1.92,5.49,3.72,7.06,4.63,6.92,3.99,10.54,5.1,12.44,5.1,1.11,0,1.62-.38,1.86-.79,.71-1.23-.54-3.06-3.83-5.59Zm-18.73,11.12c-8.13-9.69-10.98-9.77-11.96-8.95-.98,.82-1.4,3.64,6.73,13.33,1.16,1.38,3.45,4.02,5.78,6.15,2.3,2.1,4.02,3.14,5.19,3.14,.39,0,.72-.11,.99-.34,1.09-.91,.54-3.06-1.69-6.57-1.69-2.66-3.89-5.38-5.05-6.76Zm-16.35,10.81c-4.33-11.89-6.98-12.93-8.18-12.5-1.34,.49-1.55,2.69-.66,6.75,.68,3.08,1.81,6.38,2.43,8.08,.62,1.7,1.87,4.96,3.33,7.75,1.69,3.24,3.13,4.83,4.36,4.83,.17,0,.33-.03,.49-.09,1.34-.49,1.55-2.69,.66-6.75-.68-3.08-1.81-6.38-2.43-8.08Zm-22.47-9.98c-1.27,0-3.41,1.89-3.41,14.54s2.14,14.54,3.41,14.54,3.41-1.89,3.41-14.54-2.14-14.54-3.41-14.54Zm-14.3-2.52c-1.33-.49-2.92,1.06-4.85,4.74-1.46,2.79-2.71,6.06-3.33,7.75-.62,1.7-1.75,5-2.43,8.08-.89,4.05-.67,6.26,.66,6.75,.16,.06,.32,.09,.49,.09,1.23,0,2.66-1.59,4.36-4.83,1.46-2.79,2.71-6.06,3.33-7.75,.62-1.7,1.75-5,2.43-8.08,.89-4.06,.67-6.26-.66-6.75Zm-18.75-4.46c-2.33,2.12-4.62,4.76-5.78,6.15-1.16,1.38-3.36,4.1-5.05,6.76-2.22,3.51-2.78,5.65-1.69,6.57,.22,.18,.52,.32,.96,.32,1.53,0,4.66-1.71,11-9.26,1.16-1.38,3.36-4.1,5.05-6.76,2.22-3.51,2.78-5.65,1.69-6.57-1.09-.92-3.11,0-6.18,2.8Zm-3.16-13.92c-.71-1.23-2.92-1.06-6.76,.52-2.92,1.2-5.97,2.89-7.54,3.8-1.56,.9-4.56,2.7-7.06,4.63-3.29,2.53-4.54,4.36-3.83,5.6,.31,.54,.91,.81,1.81,.81,1.15,0,2.79-.44,4.95-1.33,2.91-1.2,5.97-2.89,7.54-3.8,1.56-.9,4.56-2.7,7.06-4.63,3.29-2.53,4.54-4.36,3.83-5.6Zm-4.97-13.64c-.22-1.25-2.45-3.03-14.91-.83-1.78,.31-5.21,.98-8.21,1.93-3.96,1.26-5.76,2.55-5.51,3.95,.22,1.24,1.93,1.85,5.21,1.85,.42,0,.86-.01,1.32-.03,3.15-.13,6.6-.68,8.38-.99,12.46-2.2,13.95-4.63,13.73-5.88Zm-14.91-13.69c4.28,.75,7.35,1.04,9.54,1.04,4.21,0,5.22-1.05,5.37-1.87,.22-1.25-1.27-3.69-13.73-5.88C2.47,55.54,.24,57.32,.02,58.58c-.22,1.25,1.27,3.69,13.73,5.88Zm5.58-18.79c1.56,.9,4.62,2.6,7.54,3.8,2.15,.89,3.8,1.33,4.95,1.33,.9,0,1.5-.27,1.81-.81,.71-1.23-.54-3.06-3.83-5.6-2.5-1.92-5.49-3.72-7.06-4.63-1.56-.9-4.62-2.6-7.54-3.8-3.84-1.58-6.05-1.75-6.76-.52-.64,1.1-.07,3.9,10.89,10.22Zm17.45-9.61c2.3,2.1,4.02,3.14,5.19,3.14,.39,0,.72-.11,.99-.34,.98-.82,1.4-3.64-6.73-13.33-8.13-9.69-10.98-9.77-11.96-8.95-.98,.82-1.4,3.64,6.73,13.33,1.16,1.38,3.46,4.02,5.78,6.15Zm10.57-16.96c3.85,10.59,6.38,12.58,7.73,12.58,.17,0,.31-.03,.44-.08,1.2-.44,2.56-2.94-1.77-14.83-.62-1.7-1.87-4.96-3.33-7.75-1.92-3.68-3.51-5.23-4.85-4.74-1.34,.49-1.55,2.69-.66,6.75,.68,3.08,1.81,6.38,2.43,8.08Z"/></g></svg>